<?xml version="1.0" encoding="UTF-8"?><svg id="a" xmlns="http://www.w3.org/2000/svg" viewBox="0 0 446.32 190"><defs><style>.b{fill:#fff;}</style></defs><g><path class="b" d="M116.42,143.72c-.29-.47-.54-.96-.77-1.46-.22-.5-.44-1.01-.65-1.53l-20.17-52.81c0-.13-.02-.25-.06-.35-.04-.1-.06-.21-.06-.31,0-.73,.48-1.1,1.46-1.1h12.66c1,0,1.68,.5,2.04,1.49l11.99,35.79c1.07-2.99,2.1-5.97,3.09-8.95,.98-2.97,1.95-5.96,2.91-8.95,.96-2.99,1.93-5.97,2.91-8.95,.98-2.98,2.01-5.96,3.09-8.95,.37-1,1.09-1.49,2.16-1.49h12.39c.6,0,1.03,.11,1.28,.33,.25,.22,.37,.52,.37,.88,0,.21-.01,.35-.04,.43v.12l-20.29,52.81c-.13,.37-.29,.77-.47,1.22-.18,.45-.39,.86-.63,1.24-.24,.38-.51,.7-.83,.96-.31,.26-.67,.39-1.06,.39h-9.71c-.81,0-1.35-.28-1.61-.83Z"/><path class="b" d="M159.44,87.88c.05-.47,.24-.88,.55-1.22,.31-.34,.76-.51,1.34-.51h13.61c.97,0,1.6,.5,1.89,1.49l10.7,35.71,10.78-35.71c.37-1,1.04-1.49,2.01-1.49h13.45c.47,0,.9,.16,1.28,.49,.38,.33,.6,.74,.65,1.24,.92,9.23,1.85,18.38,2.81,27.47,.96,9.08,1.89,18.24,2.81,27.47v.2c0,1.02-.58,1.53-1.73,1.53h-11.13c-1.21,0-1.84-.58-1.89-1.73l-3.42-30.4-8.85,30.6c-.05,.26-.24,.58-.57,.94-.33,.37-.65,.55-.96,.55h-10.34c-.31,0-.65-.18-1-.53-.35-.35-.54-.67-.57-.96l-8.85-30.52-3.42,30.32c-.05,1.15-.69,1.73-1.93,1.73h-11.13c-1.13,0-1.69-.58-1.69-1.73l5.62-54.94Z"/><path class="b" d="M250.4,87.68c.03-.16,.11-.33,.26-.51,.14-.18,.32-.35,.53-.51,.21-.16,.43-.28,.67-.37,.24-.09,.46-.14,.67-.14h10.07c.45,0,.83,.14,1.14,.41,.31,.27,.55,.52,.71,.73l.98,2.24,20.65,53.25c.21,.52,.17,.95-.12,1.28-.29,.33-.79,.49-1.49,.49h-11.29c-.6,0-1.07-.11-1.4-.33-.33-.22-.58-.6-.77-1.12-.52-1.34-1.04-2.67-1.53-3.99s-1-2.65-1.49-3.99h-20.88c-.5,1.34-1,2.67-1.51,3.99s-1.02,2.65-1.51,3.99c-.34,.97-1.01,1.46-2.01,1.46h-11.6c-.5,0-.91-.13-1.24-.39-.33-.26-.39-.65-.18-1.18l21.35-55.29Zm7.16,16.83c-.5,1.34-1,2.78-1.51,4.33s-1.02,3.11-1.51,4.68c-.5,1.57-1,3.13-1.51,4.66-.51,1.53-1.02,2.97-1.51,4.31h12.07l-6.02-17.97Z"/><path class="b" d="M282.22,87.87c0-.52,.18-.94,.53-1.25,.35-.31,.79-.47,1.32-.47h42.31c.47,0,.89,.14,1.26,.43s.58,.72,.63,1.29v9.76c0,.47-.16,.92-.49,1.35-.33,.43-.79,.65-1.4,.65h-13.57v43.06c0,.47-.17,.9-.51,1.28-.34,.38-.78,.57-1.33,.57h-11.53c-.44,0-.86-.18-1.26-.53s-.59-.79-.59-1.32v-43.06h-13.53c-.52,0-.96-.17-1.32-.51s-.53-.84-.53-1.49v-9.76Z"/><path class="b" d="M378.8,90.39c.45,.26,.77,.6,.98,1.02,.21,.42,.17,.92-.12,1.49l-6.65,9.44c-.29,.45-.6,.7-.92,.77-.33,.07-.73-.05-1.2-.33-1.28-.97-2.7-1.72-4.25-2.24-1.55-.52-3.19-.79-4.92-.79-2.15,0-4.13,.41-5.94,1.22-1.81,.81-3.37,1.93-4.68,3.34-1.31,1.42-2.33,3.07-3.07,4.96s-1.1,3.91-1.1,6.06,.37,4.16,1.1,6.04c.73,1.88,1.76,3.51,3.07,4.92,1.31,1.4,2.87,2.51,4.68,3.32,1.81,.81,3.79,1.22,5.94,1.22,1.73,0,3.38-.27,4.96-.81,1.57-.54,3-1.29,4.29-2.26,.47-.29,.87-.41,1.18-.35,.32,.05,.63,.29,.94,.71l6.72,9.67c.29,.58,.33,1.06,.12,1.46-.21,.39-.54,.72-.98,.98-2.46,1.65-5.12,2.93-7.96,3.83-2.84,.9-5.84,1.36-8.99,1.36-2.78,0-5.45-.35-8-1.06-2.56-.71-4.95-1.72-7.18-3.03-2.23-1.31-4.25-2.88-6.08-4.7-1.82-1.82-3.39-3.84-4.7-6.06-1.31-2.21-2.32-4.6-3.03-7.16-.71-2.56-1.06-5.22-1.06-8s.35-5.45,1.06-8c.71-2.56,1.72-4.96,3.03-7.2,1.31-2.24,2.88-4.28,4.7-6.12,1.82-1.83,3.85-3.4,6.08-4.7,2.23-1.3,4.62-2.31,7.18-3.03,2.56-.72,5.22-1.08,8-1.08,3.15,0,6.12,.44,8.91,1.32,2.79,.88,5.42,2.14,7.88,3.79Z"/><path class="b" d="M389.81,87.88c.03-.45,.19-.85,.49-1.2,.3-.35,.7-.53,1.2-.53h11.68c.39,0,.8,.16,1.22,.49,.42,.33,.63,.74,.63,1.24v18.68h19.54v-18.68c0-.47,.16-.88,.49-1.22,.33-.34,.75-.51,1.28-.51h11.49c.52,0,.98,.13,1.37,.39,.39,.26,.59,.68,.59,1.26v55.02c0,.58-.17,1.01-.51,1.3-.34,.29-.78,.43-1.33,.43h-11.61c-.52,0-.95-.14-1.28-.43-.33-.29-.49-.72-.49-1.3v-22.34h-19.54v22.34c0,.55-.18,.98-.53,1.28-.35,.3-.83,.45-1.44,.45h-11.56c-1.1,0-1.67-.51-1.69-1.53v-55.13Z"/></g><path class="b" d="M30.72,79.04c1.15-.05,1.98-1.24,2.08-2.39s-.35-2.27-.73-3.36c-4.45-12.65-1.16-27.1,7.8-36.97,6.8-7.5,15.57-12.97,21.99-20.85,.94-1.15,1.91-2.35,2.6-3.65-.07,.13,.78,2.18,.85,2.4,.35,1.03,.76,2.04,1.22,3.02,.94,1.98,2.08,3.86,3.28,5.68,3.81,5.75,7.64,11.53,11.69,17.12,3.59,4.95,4.87,11.12,5.17,17.13,.39,7.51-.72,15.45-5.2,21.49-.82,1.1-1.77,2.18-2.06,3.52-.3,1.34,.38,3.02,1.73,3.24,1.18,.19,2.21-.76,2.99-1.66,2.34-2.69,4.57-5.56,6.06-8.82,1.47-3.21,2.36-6.67,2.76-10.18,.04-.35,.07-.7,.11-1.05,.33-3.83,.09-7.7-.54-11.5-.6-3.59-1.83-6.94-3.55-10.16-.35-.66-.72-1.3-1.1-1.94-.47-.79-.98-1.57-1.51-2.35-3.05-4.48-6.11-8.96-9.11-13.47-1.4-2.11-3.02-4.21-4.15-6.49-1.44-2.88-2.69-5.85-3.86-8.85-1.12-2.9-1.86-6.23-3.3-8.97-1.27,.35-2.07,2.86-2.77,3.89-1,1.48-2.03,2.94-3.09,4.39-3.09,4.22-6.29,7.99-10.15,11.52-2.55,2.33-5.08,4.58-7.73,6.8-5.19,4.34-10.26,9.14-13.58,15.11-3.1,5.56-4.77,11.92-4.76,18.29,0,5.8,1.39,11.62,4.11,16.74,.59,1.12,1.49,2.35,2.76,2.3h0Z"/><path class="b" d="M105.32,140.3c-5.44,0-10.87,0-16.31,.14-.43,0-1.29-.06-.96-.69,.22-.42,.58-.7,.89-1.04,.2-.22,.38-.46,.48-.77,.29-.93-.22-1.69-.49-2.55-.28-.92-.55-1.84-.81-2.76-.72-2.58-1.33-5.19-1.99-7.78-.66-2.6-1.49-5.16-2.18-7.75-1.51-5.65-2.85-11.35-4.3-17.01-.81-3.22-1.65-6.43-2.47-9.65-.62-2.44-1.25-4.88-1.87-7.32-.2-.78-.4-1.57-.6-2.35,0,0,6.78-4.52,4.2-15.49s-12.26-13.55-14.52-13.88-6.45,.32-8.07,2.58c0,0-9.36,1.29-13.88,7.75-4.52,6.45-4.68,13.07-2.42,16.94l-25.49,56.48s-.65,1.94,1.29,3.23,2.9,1.61,2.9,1.61H1.5s-1.5,.65-1.5,2.26,1.29,2.26,1.29,2.26H25.79s2.93,0,3.9,.65c.56,.37,.99,.96,1.24,1.58,.49,1.24,.02,2.57-.13,3.82-.16,1.47-.32,2.95-.47,4.43-.3,2.95-.56,5.91-.79,8.87-.27,3.49-.48,6.99-.75,10.47-.21,2.89-.41,5.79-.61,8.68-.04,.51-.07,1.02-.1,1.53,0,0-.32,2.58,1.94,2.9h9.26s1.07-.32,1.71-2.9l7.1-20.33,.13,23.24s-.13,2.58,2.13,2.58h11.16s2.4,0,2.72-1.29,1.94-38.08,1.94-38.08l.32-4.2s.32-1.94,1.94-1.61h24.37c3.66,0,7.32,.05,10.98,.03,.59,0,1.18-.03,1.77-.03,0,0,1.29-.65,1.29-2.26s-1.5-2.26-1.5-2.26h0Zm-31.77-78.15c3.38,5.21,2.88,11.63-1.11,14.22-2.63,1.7-6.71,1.4-9.17-.54,.84-1.72,2.18-3.23,2.89-5.03,.79-2.01,1-4.33,1-6.47,0-2.97-1.45-6.22-3.9-8.03,3.69-.35,7.77,1.98,10.29,5.85h0Zm-27.19,1.47c4.02-4.79,10.16-6.26,13.71-3.28,3.55,2.98,3.17,9.28-.85,14.07-4.02,4.79-10.16,6.26-13.71,3.28-3.55-2.98-3.17-9.28,.85-14.07Zm2.05,83.93c-.11,.79-.25,1.55-.52,2.31-.29,.82-.66,1.62-.98,2.43-.37,.97-.71,1.95-1.06,2.92-.19,.54-.37,1.08-.56,1.62-.3,.87-.6,1.75-.9,2.62-.33,.96-.65,1.91-.97,2.87-.34,1-.67,2-1.01,3-.34,1.01-.68,2.02-1.01,3.03-.33,.98-.66,1.97-.98,2.95-.31,.92-.61,1.84-.92,2.76-.27,.82-.55,1.64-.82,2.46-.23,.69-.46,1.37-.68,2.06-.17,.52-.34,1.03-.51,1.55-.1,.31-.21,.62-.31,.94-.09,.28-.15,.57-.34,.81-.25,.3-.65,.42-1.03,.46-.47,.05-1.79,.36-2-.26-.05-.15-.04-.32-.01-.48,.13-1.08,.27-2.16,.42-3.24,.09-.65,.18-1.31,.27-1.96,.11-.8,.22-1.59,.32-2.39l.37-2.72c.13-.98,.26-1.97,.4-2.96,.14-1.03,.28-2.06,.42-3.09,.14-1.05,.28-2.09,.42-3.14,.14-1.03,.27-2.05,.41-3.08,.13-.97,.26-1.95,.39-2.93,.12-.89,.24-1.78,.35-2.68,.1-.77,.21-1.55,.31-2.33,.08-.63,.17-1.26,.25-1.88,.09-.66,.22-1.32,.26-1.98,.04-.69-.09-1.36-.27-2.02-.31-1.09-.84-2.12-1.63-2.94-.55-.56-1.22-1.01-1.95-1.31-1.27-.53-2.52-1.06-3.79-1.6-1.79-.76-3.58-1.53-5.36-2.31-.43-.19-.86-.37-1.28-.56-.29-.12-.58-.24-.87-.35-.28-.11-.63-.2-.89-.36-.42-.26-.65-.78-.64-1.26,0-.34,.11-.67,.24-.98,.97-2.26,10-23.88,10-23.88l10.97-26.46s.32-.97,1.29-.65c.34,.11,.67,.24,.99,.37,.27,.11,.56,.21,.8,.37,.14,.09,.25,.21,.32,.36,.13,.34-.08,.62-.21,.92-.14,.31-.27,.63-.4,.95-.48,1.2-.84,2.45-1.32,3.65-.26,.74-.53,1.47-.78,2.2-.3,.83-.59,1.67-.88,2.5-.32,.91-.64,1.82-.96,2.74-.34,.97-.68,1.94-1.02,2.91-.35,1.01-.71,2.02-1.06,3.03l-1.07,3.09c-.36,1.03-.72,2.06-1.07,3.09-.35,1.01-.7,2.02-1.05,3.03-.34,.97-.67,1.94-1.01,2.91-.32,.91-.63,1.82-.95,2.73-.29,.83-.57,1.67-.86,2.49-.25,.73-.51,1.47-.76,2.2-.21,.61-.42,1.23-.64,1.84-.16,.48-.33,.95-.49,1.43-.15,.44-.3,.88-.46,1.31-.13,.34-.29,.67-.4,1.02-.15,.47-.25,.96-.25,1.45,0,1.11,.59,2,1.6,2.45,2.9,1.29,14.52,7.75,14.52,7.75,0,0,1.61,.65,1.61,2.9v5.32h-.02Zm-.29-15.19c-.29,.46-1.32-.46-1.32-.46,0,0-6.13-3.87-7.75-4.52s-.65-2.26-.65-2.26c0,0,12.91-40.02,13.23-40.99s.65-.97,.65-.97c4.53-.91,7.1-3.55,7.42-3.87s.65-.32,.97-.32,1.61,1.29,1.61,1.29c0,0,5.16,37.44,5.47,40.38,.08,.78,.13,1.93-.51,2.53-.39,.36-1.07,.46-1.57,.62-3.08,1.05-6.1,2.28-9.2,3.26-7.1,2.26-8.07,4.84-8.36,5.3h0Zm31.92,2.12c-2.44,.76-4.87,1.51-7.31,2.26-.52,0-1.21,.38-1.7,.54-.68,.22-1.36,.41-2.04,.62-.91,.27-1.82,.55-2.72,.83-.82,.25-1.63,.44-2.35,.92-.74,.5-1.33,1.24-1.75,2.02-.45,.85-.79,1.85-.85,2.82,0,0-2.9,37.76-2.9,39.37,0,.54-.11,1.25-.65,1.52-.36,.18-.91,.09-1.31,.09-.56,0-1.17,.06-1.72,0-.32-.04-.57-.19-.72-.47-.17-.34-.17-.77-.11-1.13v-46.15c0-2.58,1.94-3.23,1.94-3.23,0,0,15.49-5.16,17.91-5.77,2.42-.6,1.78-2.62,1.78-2.62-1.13-5.63-2.24-11.27-3.35-16.9-1.72-8.77-3.48-17.52-5-26.32-.04-.2-.07-.42,.01-.61,.36-.82,2.12-.47,2.79-.41,.98,.09,1.17,.42,1.35,1.33,3.14,15.12,5.66,30.55,9.78,45.42,.3,1.08,.55,2.18,.55,3.31,0,1.94-1.61,2.58-1.61,2.58h0Z"/></svg>