<?xml version="1.0" encoding="UTF-8"?><svg id="a" xmlns="http://www.w3.org/2000/svg" xmlns:xlink="http://www.w3.org/1999/xlink" viewBox="0 0 332.5 588.73"><defs><style>.d{fill:url(#c);}.e{fill:url(#b);}</style><linearGradient id="b" x1="180.07" y1="263.14" x2="180.07" y2=".23" gradientTransform="matrix(1, 0, 0, 1, 0, 0)" gradientUnits="userSpaceOnUse"><stop offset=".03" stop-color="#bb6791"/><stop offset=".11" stop-color="#bc7386"/><stop offset=".32" stop-color="#c08d6e"/><stop offset=".54" stop-color="#c2a05e"/><stop offset=".76" stop-color="#c4ac54"/><stop offset=".99" stop-color="#c5b051"/></linearGradient><linearGradient id="c" x1="164.32" y1="584.75" x2="164.32" y2="158.07" gradientTransform="matrix(1, 0, 0, 1, 0, 0)" gradientUnits="userSpaceOnUse"><stop offset=".01" stop-color="#c5b051"/><stop offset=".24" stop-color="#c4ac54"/><stop offset=".46" stop-color="#c2a05e"/><stop offset=".68" stop-color="#c08d6e"/><stop offset=".89" stop-color="#bc7386"/><stop offset=".97" stop-color="#bb6791"/></linearGradient></defs><path class="e" d="M94.51,243.4c3.54-.16,6.1-3.81,6.38-7.36,.29-3.54-1.07-6.97-2.25-10.33-13.69-38.93-3.55-83.38,24.01-113.75,20.92-23.06,47.9-39.91,67.64-64.14,2.88-3.53,5.88-7.22,8.01-11.24-.21,.39,2.39,6.71,2.62,7.4,1.06,3.18,2.33,6.27,3.76,9.3,2.88,6.1,6.38,11.87,10.1,17.48,11.72,17.7,23.51,35.48,35.97,52.67,11.05,15.24,14.97,34.2,15.91,52.7,1.19,23.11-2.21,47.54-15.99,66.12-2.51,3.4-5.43,6.72-6.34,10.84-.91,4.12,1.16,9.3,5.33,9.96,3.63,.58,6.8-2.34,9.2-5.11,7.21-8.28,14.07-17.11,18.64-27.13,4.51-9.88,7.26-20.52,8.49-31.3,.12-1.08,.23-2.15,.33-3.24,1.01-11.79,.27-23.7-1.67-35.37-1.84-11.04-5.63-21.36-10.91-31.25-1.07-2.02-2.2-4-3.39-5.96-1.46-2.43-3.01-4.84-4.65-7.24-9.39-13.78-18.79-27.56-28.04-41.44-4.32-6.48-9.28-12.97-12.78-19.96-4.43-8.86-8.29-17.99-11.86-27.22-3.45-8.93-5.73-19.17-10.17-27.61-3.89,1.06-6.36,8.81-8.52,11.97-3.09,4.56-6.25,9.05-9.51,13.49-9.52,12.99-19.36,24.59-31.21,35.43-7.84,7.17-15.64,14.1-23.78,20.92-15.96,13.36-31.56,28.12-41.79,46.48-9.53,17.12-14.67,36.68-14.65,56.27,.02,17.83,4.29,35.74,12.64,51.51,1.82,3.45,4.6,7.24,8.49,7.07v.02Z"/><path class="d" d="M324,431.84c-16.74,0-33.45-.02-50.18,.42-1.31,.03-3.96-.18-2.95-2.12,.68-1.29,1.78-2.16,2.73-3.19,.63-.68,1.18-1.41,1.49-2.37,.9-2.86-.69-5.2-1.51-7.84-.87-2.82-1.7-5.65-2.49-8.49-2.22-7.94-4.09-15.95-6.13-23.95-2.05-8.01-4.58-15.88-6.71-23.86-4.64-17.38-8.77-34.91-13.22-52.34-2.48-9.91-5.06-19.8-7.59-29.69-1.92-7.51-3.84-15.02-5.76-22.53-.62-2.4-1.23-4.82-1.85-7.22,0,0,20.85-13.9,12.91-47.65-7.94-33.76-37.73-41.7-44.68-42.69-6.95-.99-19.86,.99-24.82,7.94,0,0-28.79,3.97-42.69,23.83-13.9,19.86-14.4,40.21-7.45,52.12L44.68,415.96s-1.99,5.96,3.97,9.93c5.96,3.97,8.94,4.96,8.94,4.96H4.62s-4.62,1.99-4.62,6.95,3.97,6.95,3.97,6.95H79.34s9.02,0,12,1.99c1.74,1.15,3.04,2.95,3.81,4.86,1.52,3.81,.05,7.89-.39,11.74-.51,4.54-.98,9.07-1.44,13.62-.91,9.08-1.72,18.18-2.42,27.28-.83,10.73-1.49,21.49-2.31,32.21-.65,8.91-1.27,17.81-1.89,26.72-.11,1.57-.22,3.13-.32,4.7,0,0-.99,7.94,5.96,8.94h28.48s3.29-.99,5.27-8.94l21.84-62.55,.39,71.48s-.39,7.94,6.56,7.94h34.32s7.38,0,8.37-3.97c.99-3.97,5.96-117.15,5.96-117.15l.99-12.91s.99-5.96,5.96-4.96h74.96c11.25,0,22.51,.17,33.77,.09,1.82,0,3.63-.09,5.45-.09,0,0,3.97-1.99,3.97-6.95s-4.62-6.95-4.62-6.95h0Zm-97.74-240.42c10.4,16.02,8.87,35.78-3.43,43.75-8.08,5.24-20.65,4.32-28.2-1.66,2.59-5.3,6.72-9.93,8.89-15.47,2.42-6.18,3.08-13.33,3.08-19.91,0-9.12-4.47-19.12-11.98-24.7,11.35-1.06,23.92,6.09,31.64,17.99h0Zm-83.65,4.53c12.37-14.73,31.24-19.25,42.17-10.09,10.92,9.16,9.76,28.54-2.61,43.28-12.37,14.73-31.24,19.25-42.17,10.09-10.92-9.16-9.76-28.54,2.61-43.28Zm6.3,258.21c-.33,2.44-.76,4.78-1.59,7.1-.9,2.53-2.04,4.97-3.01,7.49-1.15,2.98-2.19,5.99-3.25,8.99-.58,1.66-1.15,3.33-1.73,4.99-.92,2.69-1.85,5.37-2.76,8.06-1,2.94-2,5.88-2.99,8.82-1.04,3.08-2.07,6.16-3.11,9.23-1.04,3.11-2.08,6.21-3.12,9.31-1.01,3.02-2.02,6.05-3.03,9.06-.94,2.83-1.89,5.66-2.82,8.49-.84,2.52-1.68,5.05-2.51,7.58-.69,2.11-1.4,4.22-2.09,6.33-.53,1.59-1.05,3.17-1.57,4.76-.32,.96-.65,1.92-.95,2.89-.28,.86-.46,1.77-1.05,2.48-.76,.91-2,1.28-3.18,1.41-1.46,.17-5.5,1.1-6.15-.81-.16-.48-.11-.99-.04-1.49,.4-3.33,.83-6.65,1.3-9.97,.28-2.01,.56-4.02,.82-6.03,.34-2.45,.67-4.89,.99-7.35,.38-2.79,.75-5.58,1.13-8.37,.41-3.03,.81-6.07,1.22-9.09,.43-3.18,.85-6.34,1.28-9.52,.43-3.22,.86-6.43,1.29-9.65,.42-3.16,.84-6.31,1.26-9.47,.4-3,.8-6.01,1.2-9,.37-2.74,.73-5.49,1.09-8.23,.32-2.38,.64-4.78,.95-7.16,.26-1.93,.52-3.86,.77-5.79,.27-2.04,.69-4.05,.79-6.1,.11-2.11-.27-4.19-.84-6.22-.94-3.35-2.57-6.53-5.01-9.03-1.7-1.74-3.74-3.11-5.99-4.04-3.89-1.62-7.76-3.28-11.65-4.92-5.51-2.35-11.02-4.71-16.5-7.11-1.31-.58-2.63-1.15-3.95-1.71-.88-.37-1.78-.73-2.67-1.09-.87-.35-1.94-.62-2.73-1.12-1.28-.8-2.01-2.41-1.97-3.88,.03-1.04,.34-2.06,.74-3.01,2.98-6.95,30.78-73.47,30.78-73.47l33.76-81.41s.99-2.98,3.97-1.99c1.03,.35,2.06,.72,3.06,1.13,.82,.34,1.73,.66,2.47,1.14,.42,.27,.78,.65,.97,1.1,.41,1.04-.25,1.91-.65,2.82-.43,.96-.84,1.94-1.23,2.92-1.49,3.69-2.58,7.53-4.06,11.23-.81,2.26-1.62,4.52-2.41,6.78-.91,2.56-1.82,5.12-2.72,7.69-.99,2.81-1.98,5.61-2.96,8.42-1.05,2.99-2.09,5.98-3.14,8.97-1.08,3.11-2.17,6.22-3.26,9.32l-3.31,9.5c-1.1,3.17-2.2,6.33-3.3,9.5-1.08,3.11-2.15,6.22-3.23,9.32-1.03,2.99-2.07,5.97-3.1,8.96-.97,2.8-1.94,5.61-2.91,8.41-.88,2.56-1.77,5.12-2.65,7.67-.77,2.25-1.56,4.51-2.33,6.77-.66,1.89-1.3,3.78-1.96,5.67-.51,1.47-1.01,2.93-1.52,4.4-.47,1.35-.91,2.71-1.43,4.04-.4,1.05-.89,2.07-1.23,3.15-.46,1.44-.75,2.94-.75,4.45,0,3.41,1.81,6.16,4.92,7.55,8.94,3.97,44.68,23.83,44.68,23.83,0,0,4.96,1.99,4.96,8.94v16.38h-.06Zm-.9-46.74c-.9,1.42-4.06-1.42-4.06-1.42,0,0-18.86-11.91-23.83-13.9-4.96-1.99-1.99-6.95-1.99-6.95,0,0,39.71-123.11,40.71-126.09s1.99-2.98,1.99-2.98c13.94-2.79,21.84-10.92,22.83-11.91s1.99-.99,2.98-.99,4.96,3.97,4.96,3.97c0,0,15.88,115.17,16.82,124.23,.25,2.41,.4,5.93-1.58,7.77-1.2,1.12-3.3,1.4-4.83,1.92-9.46,3.22-18.76,7.01-28.3,10.04-21.84,6.95-24.82,14.89-25.72,16.31h0Zm98.2,6.52c-7.5,2.32-14.98,4.64-22.48,6.96-1.59,0-3.72,1.16-5.24,1.65-2.08,.67-4.19,1.27-6.27,1.9-2.79,.84-5.59,1.69-8.38,2.54-2.51,.76-5.02,1.35-7.23,2.84-2.28,1.55-4.08,3.8-5.37,6.22-1.39,2.61-2.42,5.69-2.6,8.67,0,0-8.94,116.16-8.94,121.12,0,1.66-.34,3.85-2.01,4.69-1.11,.56-2.81,.28-4.03,.29-1.73,.02-3.58,.18-5.3-.03-.97-.12-1.77-.58-2.22-1.46-.54-1.03-.54-2.36-.34-3.48v-141.97c0-7.94,5.96-9.93,5.96-9.93,0,0,47.65-15.88,55.09-17.74,7.44-1.86,5.47-8.07,5.47-8.07-3.46-17.33-6.9-34.67-10.32-52-5.3-26.96-10.69-53.9-15.38-80.98-.11-.63-.21-1.29,.04-1.88,1.1-2.52,6.53-1.46,8.58-1.26,3.01,.29,3.58,1.29,4.16,4.08,9.65,46.52,17.4,93.97,30.09,139.74,.92,3.32,1.68,6.71,1.68,10.18,0,5.96-4.96,7.94-4.96,7.94h0Z"/></svg>